<svg xmlns="http://www.w3.org/2000/svg" width="9.049" height="13.906" viewBox="0 0 9.049 13.906">
  <path id="Path_31" data-name="Path 31" d="M365.614-700.11l-3.469-3.469a.619.619,0,0,1,0-.875.618.618,0,0,1,.875,0l3.906,3.906a.618.618,0,0,1,0,.875l-3.906,3.906a.618.618,0,0,1-.875,0,.618.618,0,0,1,0-.875Zm-11.794.619h7.945a.619.619,0,0,0,.619-.619.619.619,0,0,0-.619-.619h-7.945a.619.619,0,0,0-.619.619A.619.619,0,0,0,353.821-699.491Z" transform="translate(-695.585 -353.202) rotate(90)" fill="#1f3050" fill-rule="evenodd"/>
</svg>
