<svg xmlns="http://www.w3.org/2000/svg" viewBox="0 0 19.35 16.28"><defs><style>.cls-1{fill:#314467;fill-rule:evenodd;}</style></defs><g id="Layer_2" data-name="Layer 2"><g id="Layer_1-2" data-name="Layer 1"><path id="plane" class="cls-1" d="M18.1.06.42,6.94A.66.66,0,0,0,0,7.78a.65.65,0,0,0,.43.39L5,9.49l1.67,5.33a.79.79,0,0,0,1,.49.85.85,0,0,0,.3-.19l2.31-2.36,4.57,3.34a1,1,0,0,0,1.35-.23,1,1,0,0,0,.15-.33l3-14.44a.92.92,0,0,0-1.23-1Zm-2.21,3.2L7.66,10.53a.5.5,0,0,0-.14.27L7.2,13.62c0,.1-.13.1-.18,0L5.72,9.44a.47.47,0,0,1,.2-.51l9.7-6a.22.22,0,0,1,.3.09A.21.21,0,0,1,15.89,3.26Z"/></g></g></svg>