<svg xmlns="http://www.w3.org/2000/svg" viewBox="0 0 51 52"><defs><style>.cls-1{fill:#314467;fill-rule:evenodd;}.cls-2,.cls-3{fill:none;}.cls-3{stroke:#d66b00;stroke-width:2px;}</style></defs><g id="Layer_2" data-name="Layer 2"><g id="Layer_1-2" data-name="Layer 1"><g id="Group_10" data-name="Group 10"><path id="Path_23" data-name="Path 23" class="cls-1" d="M19.93,18.32a1.89,1.89,0,1,1-1.88,1.88A1.89,1.89,0,0,1,19.93,18.32Z"/><path id="Path_24" data-name="Path 24" class="cls-1" d="M21,34h-2.2a.53.53,0,0,1-.53-.51V24a.52.52,0,0,1,.52-.53H21a.52.52,0,0,1,.51.53v9.4A.52.52,0,0,1,21,34Z"/><path id="Path_25" data-name="Path 25" class="cls-1" d="M33.72,26.81a3.55,3.55,0,0,0-3.55-3.55h-.58A3.13,3.13,0,0,0,27,24.61a1.11,1.11,0,0,0-.17.27h0V23.72a.22.22,0,0,0-.22-.21H23.81a.23.23,0,0,0-.21.21v10a.23.23,0,0,0,.21.21h2.82a.21.21,0,0,0,.21-.21V28A1.82,1.82,0,0,1,30,26.64a1.85,1.85,0,0,1,.53,1.29v5.8a.21.21,0,0,0,.21.21h2.82a.21.21,0,0,0,.21-.21V26.81Z"/></g><g id="Ellipse_5" data-name="Ellipse 5"><ellipse class="cls-2" cx="25.5" cy="26" rx="25.5" ry="26"/><ellipse class="cls-3" cx="25.5" cy="26" rx="24.5" ry="25"/></g></g></g></svg>