<svg id="Layer_2" data-name="Layer 2" xmlns="http://www.w3.org/2000/svg" width="26.087" height="36.7" viewBox="0 0 26.087 36.7">
  <g id="Layer_1" data-name="Layer 1">
    <rect id="Rectangle_1" data-name="Rectangle 1" width="4.44" height="35.59" transform="translate(0.555 0.555)" fill="#fff"/>
    <path id="Path_1" data-name="Path 1" d="M4.44,1.11V35.59H1.11V1.11H4.44M5.55,0H0V36.7H5.55Z" fill="#fff"/>
    <path id="Path_2" data-name="Path 2" d="M7,13.979,18.834.98,24.084,1,7.078,20.14Z" transform="translate(0.771 0.108)" fill="#fff"/>
    <path id="Path_3" data-name="Path 3" d="M19.144,1.59h3.763l-7.771,8.725-7.46,8.437V14.245L13.46,7.9l5.75-6.305m-.5-1.11L6.5,13.823l.1,7.771L25.372.5H18.644Z" transform="translate(0.716 0.053)" fill="#fff"/>
    <path id="Path_4" data-name="Path 4" d="M18.549,33.781,11.1,18.351l2.542-2.531L23.91,33.781Z" transform="translate(1.222 1.742)" fill="#fff"/>
    <path id="Path_5" data-name="Path 5" d="M13.586,16.809l4.829,8.459,4.607,8.048H18.97L15.384,25.9l-3.541-7.349,1.743-1.743M13.83,15,10.5,18.33l7.771,16.1h6.661Z" transform="translate(1.156 1.651)" fill="#fff"/>
  </g>
</svg>
