<svg xmlns="http://www.w3.org/2000/svg" viewBox="0 0 23.5 33.06"><defs><style>.cls-1{fill:#314467;}</style></defs><g id="Layer_2" data-name="Layer 2"><g id="Layer_1-2" data-name="Layer 1"><rect class="cls-1" x="0.5" y="0.5" width="4" height="32.06"/><path class="cls-1" d="M4,1V32.06H1V1H4M5,0H0V33.06H5V0Z"/><polygon class="cls-1" points="7 12.69 17.66 0.98 22.39 1 7.07 18.24 7 12.69"/><path class="cls-1" d="M17.89,1.48h3.39l-7,7.86L7.56,16.94l0-.93,0-3.13,5.21-5.72,5.18-5.68m-.45-1Q12,6.49,6.5,12.5l.09,7L23.5.5l-6.06,0Z"/><polygon class="cls-1" points="17.81 32 11.1 18.1 13.39 15.82 22.64 32 17.81 32"/><path class="cls-1" d="M13.28,16.63l4.35,7.62,4.15,7.25H18.13L14.9,24.82,11.71,18.2l1.57-1.57M13.5,15l-3,3,7,14.5h6L13.5,15Z"/></g></g></svg>