<svg xmlns="http://www.w3.org/2000/svg" viewBox="0 0 15.08 15.09"><defs><style>.cls-1{fill:#314467;}</style></defs><g id="Layer_2" data-name="Layer 2"><g id="Layer_1-2" data-name="Layer 1"><path id="ic_phone_24px" data-name="ic phone 24px" class="cls-1" d="M3,6.53a12.77,12.77,0,0,0,5.53,5.52l1.84-1.84a.82.82,0,0,1,.85-.2,9.55,9.55,0,0,0,3,.47.84.84,0,0,1,.83.84v2.93a.84.84,0,0,1-.83.84A14.25,14.25,0,0,1,0,.84H0A.85.85,0,0,1,.84,0H3.77a.85.85,0,0,1,.84.84,9.54,9.54,0,0,0,.48,3,.86.86,0,0,1-.21.85Z"/></g></g></svg>